<?xml version="1.0" encoding="UTF-8"?>
<svg width="252px" height="88px" viewBox="0 0 252 88" version="1.1" xmlns="http://www.w3.org/2000/svg" xmlns:xlink="http://www.w3.org/1999/xlink">
    <!-- Generator: Sketch 63.1 (92452) - https://sketch.com -->
    <title>CTAS_LOGO</title>
    <desc>Created with Sketch.</desc>
    <g id="Page-1" stroke="none" stroke-width="1" fill="none" fill-rule="evenodd">
        <g id="CTAS_LOGO" fill-rule="nonzero">
            <g id="text" transform="translate(108.000000, 20.000000)" fill="#103643">
                <path d="M19.2520189,20.925 C21.8739603,20.7661592 24.3468622,22.154112 25.5770189,24.475 L35.9020189,18.625 C34.3260508,15.7401518 31.9694075,13.3575161 29.1020189,11.75 C26.123459,10.063523 22.7495306,9.20062574 19.3270189,9.25 C14.1617375,9.1087068 9.16766193,11.1081465 5.52701895,14.775 C-1.84233965,22.3927355 -1.84233965,34.4822645 5.52701895,42.1 C9.16766193,45.7668535 14.1617375,47.7662932 19.3270189,47.625 C22.7506801,47.6841316 26.1271352,46.8205881 29.1020189,45.125 C31.9614128,43.4958236 34.3147569,41.1078715 35.9020189,38.225 L25.5770189,32.275 C24.3980386,34.6533825 21.9001269,36.084992 19.2520189,35.9 C17.3711457,35.924178 15.5630916,35.1738356 14.2520189,33.825 C11.5193712,30.7913058 11.5193712,26.1836942 14.2520189,23.15 C15.5371539,21.7458488 17.3486024,20.9397543 19.2520189,20.925 Z" id="Path"></path>
                <path d="M55.4020189,-5.32907052e-14 L43.4020189,3.625 L43.4020189,10.175 L37.9020189,10.175 L37.9020189,21.725 L43.4020189,21.725 L43.4020189,32.55 C43.4020189,38.2833333 44.8520189,42.2833333 47.7520189,44.55 C50.6520189,46.8166667 55.7436856,47.4666667 63.0270189,46.5 L63.0270189,35.6 C61.0442294,35.8323133 59.0355918,35.6967091 57.1020189,35.2 C55.9451878,34.7200358 55.2644802,33.5133267 55.4520189,32.275 L55.4520189,21.725 L62.9520189,21.725 L62.9520189,10.175 L55.4020189,10.175 L55.4020189,-5.32907052e-14 Z" id="Path"></path>
                <path d="M94.3520189,13.625 C91.7569576,10.6719496 87.9528979,9.06927073 84.0270189,9.275 C79.3292493,9.18814502 74.8410274,11.2165643 71.8020189,14.8 C68.4910317,18.5674307 66.7546568,23.4632918 66.9520189,28.475 C66.7872587,33.4968009 68.5187141,38.3966411 71.8020189,42.2 C74.864004,45.7439587 79.344386,47.7413479 84.0270189,47.65 C87.9528979,47.8557293 91.7569576,46.2530504 94.3520189,43.3 L94.3520189,46.625 L106.402019,46.625 L106.402019,10.175 L94.3520189,10.175 L94.3520189,13.625 Z M92.2270189,34.2 C89.1154419,37.1023914 84.288596,37.1023914 81.1770189,34.2 C78.3820268,30.885587 78.3820268,26.039413 81.1770189,22.725 C84.288596,19.8226086 89.1154419,19.8226086 92.2270189,22.725 C95.0638018,26.0240303 95.0638018,30.9009697 92.2270189,34.2 L92.2270189,34.2 Z" id="Shape"></path>
                <path d="M142.427019,30.275 C141.792393,28.8615726 140.780297,27.6505179 139.502019,26.775 C138.359319,25.9659087 137.115361,25.310309 135.802019,24.825 C134.494279,24.3315742 133.148042,23.946935 131.777019,23.675 C130.157619,23.3401722 128.5624,22.8975197 127.002019,22.35 C125.977019,21.925 125.452019,21.4 125.452019,20.775 C125.452019,19.625 126.352019,19.025 128.127019,19.025 C130.124188,19.0691958 131.903386,20.2979236 132.652019,22.15 L142.902019,17.575 C140.027019,11.95 135.052019,9.15 127.902019,9.15 C124.201804,9.05007948 120.572174,10.1750011 117.577019,12.35 C114.73357,14.4460817 113.121151,17.8209111 113.277019,21.35 C113.246923,22.9993129 113.597683,24.63334 114.302019,26.125 C114.950904,27.4603901 115.94312,28.5992812 117.177019,29.425 C119.426489,31.0030504 121.981207,32.0930632 124.677019,32.625 C126.294906,32.97612 127.883029,33.4525571 129.427019,34.05 C130.427019,34.45 130.927019,34.975 130.927019,35.6 C130.927019,36.925 129.827019,37.575 127.652019,37.575 C125.054205,37.7452222 122.690029,36.0788433 121.977019,33.575 L111.452019,38.875 C114.152019,44.6583333 119.577019,47.5416667 127.727019,47.525 C131.619091,47.6106965 135.454073,46.5782015 138.777019,44.55 C141.918331,42.5757243 143.708369,39.0245202 143.427019,35.325 C143.475285,33.5880861 143.133574,31.8624442 142.427019,30.275 Z" id="Path"></path>
            </g>
            <g id="logo">
                <circle id="Oval" fill="#50BCBC" cx="43.9800948" cy="43.9800137" r="7.33"></circle>
                <path d="M43.9800948,18.34 C42.494815,18.3359666 41.1535338,19.2275629 40.5823354,20.5986226 C40.011137,21.9696822 40.3226534,23.5498521 41.3714749,24.6015392 C42.4202964,25.6532263 43.9996104,25.9690531 45.3722235,25.4015978 C46.7448366,24.8341424 47.6400948,23.4952989 47.6400948,22.0100137 C47.6400948,19.9870275 46.0030735,18.3455259 43.9800948,18.34 L43.9800948,18.34 Z" id="Path" fill="#4256A2"></path>
                <path d="M26.7700948,29.8100137 C25.0194806,28.7995984 22.7812266,29.3995819 21.7707155,31.1501407 C20.7602044,32.9006995 21.3600653,35.1389864 23.1105688,36.1495933 C24.8610723,37.1602002 27.099392,36.5604618 28.1100948,34.8100137 C29.1150541,33.0585219 28.5162572,30.8242049 26.7700948,29.8100137 L26.7700948,29.8100137 Z" id="Path" fill="#4256A2"></path>
                <path d="M23.1000948,51.8000137 C21.3496466,52.8107164 20.7499083,55.0490362 21.7605152,56.7995396 C22.7711221,58.5500431 25.009409,59.149904 26.7599678,58.1393929 C28.5105266,57.1288819 29.11051,54.8906278 28.1000948,53.1400137 C27.6148054,52.2992164 26.8153556,51.6856646 25.8776501,51.4343595 C24.9399446,51.1830544 23.9408123,51.3145862 23.1000948,51.8000137 L23.1000948,51.8000137 Z" id="Path" fill="#4256A2"></path>
                <path d="M43.9800948,62.34 C42.4939061,62.3359696 41.1519939,63.2286508 40.5813844,64.6009401 C40.0107749,65.9732294 40.3241285,67.554184 41.3750265,68.605082 C42.4259245,69.65598 44.0068791,69.9693335 45.3791684,69.398724 C46.7514577,68.8281145 47.6441388,67.4862024 47.6401084,66.0000137 C47.6401084,63.9786515 46.0014569,62.34 43.9800948,62.34 L43.9800948,62.34 Z" id="Path" fill="#4256A2"></path>
                <path d="M61.1900948,58.1400137 C62.9426808,59.1460441 65.1789649,58.541313 66.1856778,56.7891188 C67.1923906,55.0369246 66.5885304,52.8004052 64.8367284,51.7930101 C63.0849264,50.7856149 60.848172,51.3886041 59.8400948,53.1400137 C59.3527741,53.9813198 59.2212462,54.9822837 59.4746796,55.9209258 C59.7281129,56.8595679 60.345561,57.6583083 61.1900948,58.1400137 L61.1900948,58.1400137 Z" id="Path" fill="#4256A2"></path>
                <path d="M64.8500948,36.1500137 C66.6005429,35.139311 67.2002813,32.9009912 66.1896744,31.1504877 C65.1790675,29.3999842 62.9407806,28.8001234 61.1902218,29.8106344 C59.4396629,30.8211455 58.8396795,33.0593996 59.8500948,34.8100137 C60.3353841,35.650811 61.1348339,36.2643628 62.0725394,36.5156678 C63.0102449,36.7669729 64.0093772,36.6354411 64.8500948,36.1500137 L64.8500948,36.1500137 Z" id="Path" fill="#4256A2"></path>
                <path d="M43.9800948,-5.01820807e-14 C42.4939061,-0.00403038995 41.1519939,0.888650754 40.5813844,2.26094007 C40.0107749,3.63322939 40.3241285,5.214184 41.3750265,6.26508198 C42.4259245,7.31597997 44.0068791,7.62933351 45.3791684,7.05872402 C46.7514577,6.48811454 47.6441388,5.14620237 47.6401084,3.66001368 C47.6401084,2.68932133 47.2544887,1.75838601 46.5681056,1.07200286 C45.8817224,0.385619719 44.9507871,-5.01820807e-14 43.9800948,-5.01820807e-14 L43.9800948,-5.01820807e-14 Z" id="Path" fill="#4256A2"></path>
                <path d="M25.6500948,12.2400137 C27.4005429,11.229311 28.0002813,8.99099121 26.9896744,7.24048772 C25.9790675,5.48998424 23.7407806,4.89012335 21.9902218,5.90063442 C20.2396629,6.9111455 19.6396795,9.14939956 20.6500948,10.9000137 C21.1353841,11.740811 21.9348339,12.3543628 22.8725394,12.6056678 C23.8102449,12.8569729 24.8093772,12.7254411 25.6500948,12.2400137 L25.6500948,12.2400137 Z" id="Path" fill="#4256A2"></path>
                <path d="M10.9000948,20.6500137 C9.14948064,19.6395984 6.91122658,20.2395819 5.9007155,21.9901407 C4.89020443,23.7406995 5.49006532,25.9789864 7.2405688,26.9895933 C8.99107229,28.0002002 11.229392,27.4004618 12.2400948,25.6500137 C12.7282385,24.8099235 12.8612867,23.809877 12.6097698,22.8713808 C12.3582528,21.9328846 11.7429306,21.1334014 10.9000948,20.6500137 L10.9000948,20.6500137 Z" id="Path" fill="#4256A2"></path>
                <path d="M7.34010848,43.9800137 C7.34414186,42.4947339 6.45254559,41.1534527 5.0814859,40.5822543 C3.71042621,40.0110559 2.13025639,40.3225724 1.07856927,41.3713939 C0.0268821488,42.4202153 -0.288944674,43.9995293 0.278510676,45.3721424 C0.845966026,46.7447555 2.1848095,47.6400137 3.67009476,47.6400137 C5.69308097,47.6400137 7.33458254,46.0029924 7.34010848,43.9800137 L7.34010848,43.9800137 Z" id="Path" fill="#4256A2"></path>
                <path d="M7.23009476,60.9600137 C5.47964661,61.9707164 4.87990825,64.2090362 5.89051516,65.9595396 C6.90112206,67.7100431 9.13940897,68.309904 10.8899678,67.2993929 C12.6405266,66.2888819 13.24051,64.0506278 12.2300948,62.3000137 C11.7448054,61.4592164 10.9453556,60.8456646 10.0076501,60.5943595 C9.06994458,60.3430544 8.07081234,60.4745862 7.23009476,60.9600137 L7.23009476,60.9600137 Z" id="Path" fill="#4256A2"></path>
                <path d="M25.6500948,75.7100137 C23.8994806,74.6995984 21.6612266,75.2995819 20.6507155,77.0501407 C19.6402044,78.8006995 20.2400653,81.0389864 21.9905688,82.0495933 C23.7410723,83.0602002 25.979392,82.4604618 26.9900948,80.7100137 C27.4755222,79.8692961 27.607054,78.8701639 27.3557489,77.9324584 C27.1044439,76.9947529 26.4908921,76.195303 25.6500948,75.7100137 L25.6500948,75.7100137 Z" id="Path" fill="#4256A2"></path>
                <path d="M43.9800948,80.6200007 C41.9584679,80.6146929 40.313239,82.2452965 40.3005083,84.2668902 C40.2877777,86.288484 41.9123401,87.9396785 43.9338736,87.9598188 C45.9554071,87.9799592 47.6125451,86.3614598 47.6400948,84.3400137 C47.6534543,83.3597663 47.2740746,82.414919 46.5865292,81.7161024 C45.8989838,81.0172857 44.9604298,80.6225939 43.9800948,80.6200007 L43.9800948,80.6200007 Z" id="Path" fill="#4256A2"></path>
                <path d="M62.3400948,75.7100137 C60.5896466,76.7207164 59.9899083,78.9590362 61.0005152,80.7095396 C62.0111221,82.4600431 64.249409,83.059904 65.9999678,82.0493929 C67.7505266,81.0388819 68.35051,78.8006278 67.3400948,77.0500137 C66.3259036,75.3038513 64.0915866,74.7050543 62.3400948,75.7100137 L62.3400948,75.7100137 Z" id="Path" fill="#4256A2"></path>
                <path d="M80.7200948,60.9600137 C78.9694806,59.9495984 76.7312266,60.5495819 75.7207155,62.3001407 C74.7102044,64.0506995 75.3100653,66.2889864 77.0605688,67.2995933 C78.8110723,68.3102002 81.049392,67.7104618 82.0600948,65.9600137 C83.0650541,64.2085219 82.4662572,61.9742049 80.7200948,60.9600137 L80.7200948,60.9600137 Z" id="Path" fill="#4256A2"></path>
                <path d="M84.3400948,40.34 C82.854815,40.3359666 81.5135338,41.2275629 80.9423354,42.5986226 C80.371137,43.9696822 80.6826534,45.5498521 81.7314749,46.6015392 C82.7802964,47.6532263 84.3596104,47.9690531 85.7322235,47.4015978 C87.1048366,46.8341424 88.0000948,45.4952989 88.0000948,44.0100137 C88.0000948,41.9870275 86.3630735,40.3455259 84.3400948,40.34 L84.3400948,40.34 Z" id="Path" fill="#4256A2"></path>
                <path d="M80.7200948,26.9900137 C82.4705429,25.979311 83.0702813,23.7409912 82.0596744,21.9904877 C81.0490675,20.2399842 78.8107806,19.6401234 77.0602218,20.6506344 C75.3096629,21.6611455 74.7096795,23.8993996 75.7200948,25.6500137 C76.2053841,26.490811 77.0048339,27.1043628 77.9425394,27.3556678 C78.8802449,27.6069729 79.8793772,27.4754411 80.7200948,26.9900137 Z" id="Path" fill="#4256A2"></path>
                <path d="M65.9600948,5.89001368 C64.2094806,4.87959845 61.9712266,5.47958187 60.9607155,7.23014067 C59.9502044,8.98069948 60.5500653,11.2189864 62.3005688,12.2295933 C64.0510723,13.2402002 66.289392,12.6404618 67.3000948,10.8900137 C67.7855222,10.0492961 67.917054,9.05016387 67.6657489,8.11245837 C67.4144439,7.17475287 66.8008921,6.37530304 65.9600948,5.89001368 L65.9600948,5.89001368 Z" id="Path" fill="#4256A2"></path>
            </g>
        </g>
    </g>
</svg>